<svg width="16" height="16" viewBox="0 0 16 16" fill="none" xmlns="http://www.w3.org/2000/svg">
<g clip-path="url(#clip0_169_8270)">
<path d="M8 12V3.33334" stroke="currentColor" stroke-width="1.33333" stroke-linecap="round" stroke-linejoin="round"/>
<path d="M10 8.66667C9.4232 8.49806 8.91656 8.14708 8.556 7.66633C8.19544 7.18558 8.00036 6.60094 8 6C7.99964 6.60094 7.80456 7.18558 7.444 7.66633C7.08344 8.14708 6.5768 8.49806 6 8.66667" stroke="currentColor" stroke-width="1.33333" stroke-linecap="round" stroke-linejoin="round"/>
<path d="M11.732 4.33334C11.8854 4.06767 11.9756 3.77026 11.9957 3.46414C12.0158 3.15801 11.9652 2.85137 11.8478 2.56794C11.7304 2.2845 11.5494 2.03187 11.3187 1.82959C11.0881 1.62731 10.814 1.4808 10.5176 1.4014C10.2213 1.322 9.91069 1.31183 9.6098 1.37168C9.30891 1.43154 9.02583 1.55981 8.78244 1.74657C8.53906 1.93333 8.3419 2.17358 8.20623 2.44873C8.07055 2.72388 7.99999 3.02656 8 3.33334C8.00001 3.02656 7.92945 2.72388 7.79377 2.44873C7.6581 2.17358 7.46094 1.93333 7.21756 1.74657C6.97417 1.55981 6.69109 1.43154 6.3902 1.37168C6.08931 1.31183 5.77868 1.322 5.48236 1.4014C5.18603 1.4808 4.91193 1.62731 4.68129 1.82959C4.45064 2.03187 4.26961 2.2845 4.15222 2.56794C4.03483 2.85137 3.98421 3.15801 4.00429 3.46414C4.02436 3.77026 4.11459 4.06767 4.268 4.33334" stroke="currentColor" stroke-width="1.33333" stroke-linecap="round" stroke-linejoin="round"/>
<path d="M11.998 3.41666C12.3899 3.51741 12.7537 3.70602 13.0619 3.9682C13.3701 4.23037 13.6146 4.55924 13.7768 4.92989C13.9391 5.30054 14.0149 5.70325 13.9985 6.10753C13.982 6.51181 13.8738 6.90705 13.682 7.26332" stroke="currentColor" stroke-width="1.33333" stroke-linecap="round" stroke-linejoin="round"/>
<path d="M12 12C12.587 12 13.1576 11.8063 13.6233 11.4489C14.089 11.0915 14.4238 10.5905 14.5757 10.0235C14.7276 9.45651 14.6882 8.85522 14.4636 8.3129C14.239 7.77057 13.8417 7.31751 13.3333 7.02399" stroke="currentColor" stroke-width="1.33333" stroke-linecap="round" stroke-linejoin="round"/>
<path d="M13.3114 11.6553C13.3581 12.0168 13.3303 12.3841 13.2295 12.7344C13.1287 13.0846 12.9572 13.4106 12.7256 13.692C12.4939 13.9734 12.207 14.2043 11.8826 14.3705C11.5582 14.5367 11.2032 14.6346 10.8394 14.6582C10.4757 14.6818 10.111 14.6306 9.76782 14.5077C9.42466 14.3849 9.11033 14.193 8.84424 13.9438C8.57815 13.6947 8.36596 13.3937 8.22077 13.0594C8.07558 12.725 8.00047 12.3645 8.00008 12C7.99969 12.3645 7.92458 12.725 7.77939 13.0594C7.6342 13.3937 7.42201 13.6947 7.15592 13.9438C6.88983 14.193 6.5755 14.3849 6.23234 14.5077C5.88917 14.6306 5.52446 14.6818 5.16073 14.6582C4.797 14.6346 4.44197 14.5367 4.11756 14.3705C3.79315 14.2043 3.50626 13.9734 3.2746 13.692C3.04294 13.4106 2.87144 13.0846 2.77067 12.7344C2.66991 12.3841 2.64202 12.0168 2.68875 11.6553" stroke="currentColor" stroke-width="1.33333" stroke-linecap="round" stroke-linejoin="round"/>
<path d="M4.00005 12C3.41304 12 2.84245 11.8063 2.37676 11.4489C1.91106 11.0915 1.57629 10.5905 1.42436 10.0235C1.27243 9.45651 1.31184 8.85522 1.53646 8.3129C1.76108 7.77057 2.15837 7.31751 2.66671 7.02399" stroke="currentColor" stroke-width="1.33333" stroke-linecap="round" stroke-linejoin="round"/>
<path d="M4.00212 3.41666C3.61025 3.51741 3.24645 3.70602 2.93827 3.9682C2.63009 4.23037 2.38561 4.55924 2.22335 4.92989C2.06108 5.30054 1.98529 5.70325 2.00171 6.10753C2.01813 6.51181 2.12633 6.90705 2.31812 7.26332" stroke="currentColor" stroke-width="1.33333" stroke-linecap="round" stroke-linejoin="round"/>
</g>
<defs>
<clipPath id="clip0_169_8270">
<rect width="16" height="16" fill="white"/>
</clipPath>
</defs>
</svg>